<svg width="73" height="72" viewBox="0 0 73 72" fill="none" xmlns="http://www.w3.org/2000/svg">
<rect x="3" y="3" width="67" height="66" rx="13" stroke="black" stroke-width="5"/>
<path d="M10.8021 34.062C9.60342 34.062 9.00409 33.7313 9.00409 33.07V13.23C9.00409 12.5687 9.60342 12.238 10.8021 12.238H11.6081C12.0214 12.238 12.3521 12.3 12.6001 12.424C12.8481 12.5273 13.0548 12.7547 13.2201 13.106L18.8001 23.212C19.0894 23.7493 19.4408 24.5553 19.8541 25.63L19.9781 25.568C19.8128 24.4933 19.7301 23.677 19.7301 23.119V13.23C19.7301 12.5687 20.3294 12.238 21.5281 12.238H22.2721C23.4708 12.238 24.0701 12.5687 24.0701 13.23V33.07C24.0701 33.7313 23.4708 34.062 22.2721 34.062H21.6831C21.2698 34.062 20.9288 34.0103 20.6601 33.907C20.3914 33.783 20.1744 33.5453 20.0091 33.194L14.0881 22.654C13.9021 22.344 13.6231 21.6827 13.2511 20.67L13.0961 20.763C13.2614 21.7137 13.3441 22.4163 13.3441 22.871V33.07C13.3441 33.7313 12.7448 34.062 11.5461 34.062H10.8021ZM34.9772 34.248C29.5626 34.248 26.8552 30.5487 26.8552 23.15C26.8552 15.7513 29.5626 12.052 34.9772 12.052C37.6226 12.052 39.6272 12.951 40.9912 14.749C42.3759 16.547 43.0682 19.3473 43.0682 23.15C43.0682 26.9527 42.3759 29.753 40.9912 31.551C39.6272 33.349 37.6226 34.248 34.9772 34.248ZM35.0082 30.187C35.7522 30.187 36.3516 29.9803 36.8062 29.567C37.2609 29.1537 37.6019 28.4407 37.8292 27.428C38.0566 26.3947 38.1702 24.9687 38.1702 23.15C38.1702 21.352 38.0566 19.9467 37.8292 18.934C37.6019 17.9007 37.2609 17.1773 36.8062 16.764C36.3516 16.3507 35.7522 16.144 35.0082 16.144C34.2642 16.144 33.6546 16.3507 33.1792 16.764C32.7246 17.1773 32.3732 17.9007 32.1252 18.934C31.8979 19.9467 31.7842 21.352 31.7842 23.15C31.7842 24.948 31.8979 26.3637 32.1252 27.397C32.3732 28.4303 32.7246 29.1537 33.1792 29.567C33.6546 29.9803 34.2642 30.187 35.0082 30.187ZM54.6199 27.087C54.3099 27.087 54.0619 27.0353 53.8759 26.932C53.6899 26.808 53.5245 26.6117 53.3799 26.343L51.0859 22.065C50.9619 21.8377 50.8379 21.5793 50.7139 21.29C50.5899 20.98 50.4969 20.7527 50.4349 20.608L50.3109 20.639C50.4349 21.383 50.4969 21.9513 50.4969 22.344V33.07C50.4969 33.4213 50.3522 33.6797 50.0629 33.845C49.7942 33.9897 49.3395 34.062 48.6989 34.062H47.6449C47.0042 34.062 46.5392 33.9897 46.2499 33.845C45.9812 33.6797 45.8469 33.4213 45.8469 33.07V13.23C45.8469 12.8787 45.9812 12.6307 46.2499 12.486C46.5392 12.3207 47.0042 12.238 47.6449 12.238H48.6059C49.1019 12.238 49.4945 12.3103 49.7839 12.455C50.0732 12.579 50.3005 12.796 50.4659 13.106L54.3099 20.391C54.5165 20.763 54.7129 21.259 54.8989 21.879C55.0435 21.321 55.2295 20.825 55.4569 20.391L59.3009 13.106C59.4662 12.796 59.6935 12.579 59.9829 12.455C60.2722 12.3103 60.6649 12.238 61.1609 12.238H62.1219C62.7625 12.238 63.2172 12.3207 63.4859 12.486C63.7752 12.6307 63.9199 12.8787 63.9199 13.23V33.07C63.9199 33.4213 63.7752 33.6797 63.4859 33.845C63.2172 33.9897 62.7625 34.062 62.1219 34.062H61.0679C60.4272 34.062 59.9622 33.9897 59.6729 33.845C59.4042 33.6797 59.2699 33.4213 59.2699 33.07V22.344C59.2699 21.848 59.3422 21.2797 59.4869 20.639L59.3629 20.608C59.2182 21.0007 58.9909 21.4863 58.6809 22.065L56.3869 26.343C56.2422 26.6117 56.0769 26.808 55.8909 26.932C55.7049 27.0353 55.4569 27.087 55.1469 27.087H54.6199ZM10.8021 61.062C9.60342 61.062 9.00409 60.7313 9.00409 60.07V40.23C9.00409 39.5687 9.60342 39.238 10.8021 39.238H11.6081C12.0214 39.238 12.3521 39.3 12.6001 39.424C12.8481 39.5273 13.0548 39.7547 13.2201 40.106L18.8001 50.212C19.0894 50.7493 19.4408 51.5553 19.8541 52.63L19.9781 52.568C19.8128 51.4933 19.7301 50.677 19.7301 50.119V40.23C19.7301 39.5687 20.3294 39.238 21.5281 39.238H22.2721C23.4708 39.238 24.0701 39.5687 24.0701 40.23V60.07C24.0701 60.7313 23.4708 61.062 22.2721 61.062H21.6831C21.2698 61.062 20.9288 61.0103 20.6601 60.907C20.3914 60.783 20.1744 60.5453 20.0091 60.194L14.0881 49.654C13.9021 49.344 13.6231 48.6827 13.2511 47.67L13.0961 47.763C13.2614 48.7137 13.3441 49.4163 13.3441 49.871V60.07C13.3441 60.7313 12.7448 61.062 11.5461 61.062H10.8021ZM34.9772 61.248C29.5626 61.248 26.8552 57.5487 26.8552 50.15C26.8552 42.7513 29.5626 39.052 34.9772 39.052C37.6226 39.052 39.6272 39.951 40.9912 41.749C42.3759 43.547 43.0682 46.3473 43.0682 50.15C43.0682 53.9527 42.3759 56.753 40.9912 58.551C39.6272 60.349 37.6226 61.248 34.9772 61.248ZM35.0082 57.187C35.7522 57.187 36.3516 56.9803 36.8062 56.567C37.2609 56.1537 37.6019 55.4407 37.8292 54.428C38.0566 53.3947 38.1702 51.9687 38.1702 50.15C38.1702 48.352 38.0566 46.9467 37.8292 45.934C37.6019 44.9007 37.2609 44.1773 36.8062 43.764C36.3516 43.3507 35.7522 43.144 35.0082 43.144C34.2642 43.144 33.6546 43.3507 33.1792 43.764C32.7246 44.1773 32.3732 44.9007 32.1252 45.934C31.8979 46.9467 31.7842 48.352 31.7842 50.15C31.7842 51.948 31.8979 53.3637 32.1252 54.397C32.3732 55.4303 32.7246 56.1537 33.1792 56.567C33.6546 56.9803 34.2642 57.187 35.0082 57.187ZM54.6199 54.087C54.3099 54.087 54.0619 54.0353 53.8759 53.932C53.6899 53.808 53.5245 53.6117 53.3799 53.343L51.0859 49.065C50.9619 48.8377 50.8379 48.5793 50.7139 48.29C50.5899 47.98 50.4969 47.7527 50.4349 47.608L50.3109 47.639C50.4349 48.383 50.4969 48.9513 50.4969 49.344V60.07C50.4969 60.4213 50.3522 60.6797 50.0629 60.845C49.7942 60.9897 49.3395 61.062 48.6989 61.062H47.6449C47.0042 61.062 46.5392 60.9897 46.2499 60.845C45.9812 60.6797 45.8469 60.4213 45.8469 60.07V40.23C45.8469 39.8787 45.9812 39.6307 46.2499 39.486C46.5392 39.3207 47.0042 39.238 47.6449 39.238H48.6059C49.1019 39.238 49.4945 39.3103 49.7839 39.455C50.0732 39.579 50.3005 39.796 50.4659 40.106L54.3099 47.391C54.5165 47.763 54.7129 48.259 54.8989 48.879C55.0435 48.321 55.2295 47.825 55.4569 47.391L59.3009 40.106C59.4662 39.796 59.6935 39.579 59.9829 39.455C60.2722 39.3103 60.6649 39.238 61.1609 39.238H62.1219C62.7625 39.238 63.2172 39.3207 63.4859 39.486C63.7752 39.6307 63.9199 39.8787 63.9199 40.23V60.07C63.9199 60.4213 63.7752 60.6797 63.4859 60.845C63.2172 60.9897 62.7625 61.062 62.1219 61.062H61.0679C60.4272 61.062 59.9622 60.9897 59.6729 60.845C59.4042 60.6797 59.2699 60.4213 59.2699 60.07V49.344C59.2699 48.848 59.3422 48.2797 59.4869 47.639L59.3629 47.608C59.2182 48.0007 58.9909 48.4863 58.6809 49.065L56.3869 53.343C56.2422 53.6117 56.0769 53.808 55.8909 53.932C55.7049 54.0353 55.4569 54.087 55.1469 54.087H54.6199Z" fill="black"/>
</svg>
