<svg width="1413" height="239" viewBox="0 0 1413 239" fill="none" xmlns="http://www.w3.org/2000/svg">
<path d="M175.137 178.25L165.687 78.35C162.537 47.75 153.087 4.09998 113.037 4.09998C88.7371 4.09998 70.7371 19.85 59.4871 45.05V20.3C59.4871 12.2 58.5871 5.44999 51.8371 5.44999C48.6871 5.44999 45.9871 6.35 26.6371 17.15C6.38711 28.85 0.0871098 33.35 0.0871098 39.65C0.0871098 55.4 23.4871 41.9 23.4871 68.9V182.75C23.4871 219.65 2.78711 208.4 2.78711 222.35C2.78711 226.4 5.03711 231.35 11.3371 231.35C18.9871 231.35 27.9871 230 41.4871 230C54.9871 230 64.4371 231.35 72.0871 231.35C77.9371 231.35 80.6371 225.95 80.6371 222.35C80.6371 208.4 59.4871 219.65 59.4871 182.75V103.1C59.4871 61.25 76.5871 36.05 99.0871 36.05C122.037 36.05 126.537 64.4 130.137 97.25L138.237 176.9C138.687 180.95 138.687 187.7 138.687 189.5C138.687 217.85 117.987 208.85 117.987 221.9C117.987 227.75 122.037 231.35 128.337 231.35C137.337 231.35 143.637 230 158.487 230C173.337 230 180.087 231.35 189.087 231.35C194.487 231.35 198.987 228.65 198.987 222.35C198.987 207.95 179.637 221 175.137 178.25ZM294.63 238.1C350.88 238.1 386.43 184.1 386.43 118.4C386.43 48.65 350.88 0.499977 299.13 0.499977C242.43 0.499977 207.33 54.5 207.33 121.1C207.33 190.4 242.88 238.1 294.63 238.1ZM300.93 214.7C269.88 214.7 246.48 167.9 246.48 104.9C246.48 58.55 261.78 23.45 292.38 23.45C323.43 23.45 347.28 70.7 347.28 134.15C347.28 180.95 331.98 214.7 300.93 214.7ZM678.891 178.25L668.991 78.35C666.291 47.75 656.391 4.09998 616.791 4.09998C591.141 4.09998 574.941 20.75 564.141 46.85H563.691C556.941 23 543.441 4.09998 518.241 4.09998C492.591 4.09998 473.241 23.45 464.241 45.5V20.3C464.241 12.2 463.341 5.44999 456.591 5.44999C453.441 5.44999 450.741 6.35 431.391 17.15C411.141 28.85 404.841 33.35 404.841 39.65C404.841 55.4 428.241 41.9 428.241 68.9V182.75C428.241 219.65 407.541 208.4 407.541 222.35C407.541 226.4 410.241 231.35 416.091 231.35C423.741 231.35 432.741 230 446.241 230C459.741 230 469.191 231.35 476.841 231.35C482.691 231.35 484.941 225.95 484.941 222.35C484.941 208.4 464.241 219.65 464.241 182.75V102.65C464.241 57.2 484.491 36.05 502.941 36.05C529.041 36.05 533.091 68.45 533.091 97.25V182.75C533.091 219.65 513.291 208.4 513.291 222.35C513.291 226.4 516.441 231.35 522.291 231.35C529.491 231.35 538.041 230 551.541 230C565.491 230 574.941 231.35 582.591 231.35C587.991 231.35 590.691 226.4 590.691 222.35C590.691 208.4 569.541 219.65 569.541 182.75V103.55C569.541 61.7 581.241 36.05 603.291 36.05C626.241 36.05 630.291 64.4 633.441 97.25L641.991 176.9C642.441 180.95 642.441 187.7 642.441 189.5C642.441 217.85 621.741 208.85 621.741 221.9C621.741 227.75 625.791 231.35 632.091 231.35C641.091 231.35 647.391 230 662.241 230C677.091 230 683.841 231.35 692.841 231.35C698.241 231.35 702.741 228.65 702.741 222.35C702.741 207.95 683.391 221 678.891 178.25ZM885.1 178.25L875.65 78.35C872.5 47.75 863.05 4.09998 823 4.09998C798.7 4.09998 780.7 19.85 769.45 45.05V20.3C769.45 12.2 768.55 5.44999 761.8 5.44999C758.65 5.44999 755.95 6.35 736.6 17.15C716.35 28.85 710.05 33.35 710.05 39.65C710.05 55.4 733.45 41.9 733.45 68.9V182.75C733.45 219.65 712.75 208.4 712.75 222.35C712.75 226.4 715 231.35 721.3 231.35C728.95 231.35 737.95 230 751.45 230C764.95 230 774.4 231.35 782.05 231.35C787.9 231.35 790.6 225.95 790.6 222.35C790.6 208.4 769.45 219.65 769.45 182.75V103.1C769.45 61.25 786.55 36.05 809.05 36.05C832 36.05 836.5 64.4 840.1 97.25L848.2 176.9C848.65 180.95 848.65 187.7 848.65 189.5C848.65 217.85 827.95 208.85 827.95 221.9C827.95 227.75 832 231.35 838.3 231.35C847.3 231.35 853.6 230 868.45 230C883.3 230 890.05 231.35 899.05 231.35C904.45 231.35 908.95 228.65 908.95 222.35C908.95 207.95 889.6 221 885.1 178.25ZM1004.59 238.1C1060.84 238.1 1096.39 184.1 1096.39 118.4C1096.39 48.65 1060.84 0.499977 1009.09 0.499977C952.393 0.499977 917.293 54.5 917.293 121.1C917.293 190.4 952.843 238.1 1004.59 238.1ZM1010.89 214.7C979.843 214.7 956.443 167.9 956.443 104.9C956.443 58.55 971.743 23.45 1002.34 23.45C1033.39 23.45 1057.24 70.7 1057.24 134.15C1057.24 180.95 1041.94 214.7 1010.89 214.7ZM1388.85 178.25L1378.95 78.35C1376.25 47.75 1366.35 4.09998 1326.75 4.09998C1301.1 4.09998 1284.9 20.75 1274.1 46.85H1273.65C1266.9 23 1253.4 4.09998 1228.2 4.09998C1202.55 4.09998 1183.2 23.45 1174.2 45.5V20.3C1174.2 12.2 1173.3 5.44999 1166.55 5.44999C1163.4 5.44999 1160.7 6.35 1141.35 17.15C1121.1 28.85 1114.8 33.35 1114.8 39.65C1114.8 55.4 1138.2 41.9 1138.2 68.9V182.75C1138.2 219.65 1117.5 208.4 1117.5 222.35C1117.5 226.4 1120.2 231.35 1126.05 231.35C1133.7 231.35 1142.7 230 1156.2 230C1169.7 230 1179.15 231.35 1186.8 231.35C1192.65 231.35 1194.9 225.95 1194.9 222.35C1194.9 208.4 1174.2 219.65 1174.2 182.75V102.65C1174.2 57.2 1194.45 36.05 1212.9 36.05C1239 36.05 1243.05 68.45 1243.05 97.25V182.75C1243.05 219.65 1223.25 208.4 1223.25 222.35C1223.25 226.4 1226.4 231.35 1232.25 231.35C1239.45 231.35 1248 230 1261.5 230C1275.45 230 1284.9 231.35 1292.55 231.35C1297.95 231.35 1300.65 226.4 1300.65 222.35C1300.65 208.4 1279.5 219.65 1279.5 182.75V103.55C1279.5 61.7 1291.2 36.05 1313.25 36.05C1336.2 36.05 1340.25 64.4 1343.4 97.25L1351.95 176.9C1352.4 180.95 1352.4 187.7 1352.4 189.5C1352.4 217.85 1331.7 208.85 1331.7 221.9C1331.7 227.75 1335.75 231.35 1342.05 231.35C1351.05 231.35 1357.35 230 1372.2 230C1387.05 230 1393.8 231.35 1402.8 231.35C1408.2 231.35 1412.7 228.65 1412.7 222.35C1412.7 207.95 1393.35 221 1388.85 178.25Z" fill="#EAD610"/>
</svg>
